<svg width="30" height="30" viewBox="0 0 30 30" fill="none" xmlns="http://www.w3.org/2000/svg">
<g id="entypo:email" clip-path="url(#clip0_19_557)">
<path id="Vector" d="M21.912 18.258C21.912 19.518 22.2705 20.0205 23.208 20.0205C25.2975 20.0205 26.628 17.358 26.628 12.93C26.628 6.16195 21.696 2.92196 15.5385 2.92196C9.20405 2.92196 3.44255 7.16995 3.44255 15.198C3.44255 22.866 8.48255 27.042 16.2225 27.042C18.8505 27.042 20.6145 26.754 23.313 25.854L23.892 28.2645C21.228 29.13 18.381 29.3805 16.1865 29.3805C6.03455 29.3805 0.597046 23.8005 0.597046 15.1965C0.597046 6.52045 6.89855 0.616455 15.5745 0.616455C24.6105 0.616455 29.397 6.01645 29.397 12.6405C29.397 18.2565 27.6345 22.5405 22.0905 22.5405C19.569 22.5405 17.9145 21.5325 17.6985 19.299C17.0505 21.783 15.3225 22.5405 12.981 22.5405C9.84905 22.5405 7.22105 20.127 7.22105 15.2685C7.22105 10.3725 9.52655 7.34845 13.6665 7.34845C15.8625 7.34845 17.2305 8.21245 17.8395 9.58045L18.885 7.67245H21.909V18.258H21.912ZM17.4855 13.506C17.4855 11.5275 16.008 10.698 14.784 10.698C13.452 10.698 11.9775 11.7765 11.9775 14.946C11.9775 17.466 13.0935 18.87 14.784 18.87C15.972 18.87 17.4855 18.114 17.4855 16.026V13.506Z" fill="white"/>
</g>
<defs>
<clipPath id="clip0_19_557">
<rect width="30" height="30" fill="white"/>
</clipPath>
</defs>
</svg>
