<svg width="32" height="32" viewBox="0 0 32 32" fill="none" xmlns="http://www.w3.org/2000/svg">
<path d="M5.50001 13.0007L5.50001 13.0006C5.5033 10.2167 6.61066 7.54771 8.57919 5.57918C10.5476 3.61079 13.2163 2.50344 16 2.5C18.7837 2.50344 21.4524 3.61079 23.4208 5.57918C25.3894 7.54771 26.4967 10.2167 26.5 13.0006V13.0007C26.5033 15.2734 25.7609 17.4845 24.3868 19.2947L24.3368 19.3605L24.3361 19.3626L24.2315 19.499C24.1913 19.5514 24.15 19.6049 24.1163 19.6485L24.0732 19.7038L24.0592 19.7216C24.0571 19.7241 24.0558 19.7258 24.055 19.7267C24.0547 19.7271 24.0545 19.7274 24.0544 19.7275C24.0542 19.7277 24.0542 19.7278 24.0543 19.7276L16 29.2269L7.94638 19.7286L7.94418 19.7261C7.94522 19.7273 7.94076 19.722 7.9277 19.7055C7.91623 19.6911 7.9016 19.6724 7.88457 19.6505C7.8506 19.6068 7.80932 19.5531 7.76902 19.5005L7.66138 19.3596L7.62698 19.3144L7.61748 19.3019L7.61501 19.2987L7.61439 19.2978L7.61426 19.2977C7.61425 19.2977 7.61424 19.2977 7.61423 19.2976C6.2394 17.4866 5.49668 15.2745 5.50001 13.0007ZM20.5 13.0006V13C20.5 12.11 20.2361 11.24 19.7416 10.4999C19.2472 9.75991 18.5444 9.18314 17.7221 8.84254C16.8998 8.50195 15.995 8.41283 15.1221 8.58647C14.2492 8.7601 13.4474 9.18868 12.818 9.81802C12.1887 10.4474 11.7601 11.2492 11.5865 12.1221C11.4128 12.995 11.502 13.8998 11.8426 14.7221C12.1831 15.5443 12.7599 16.2471 13.4999 16.7416C14.24 17.2361 15.11 17.5 16 17.5H16.0006C17.1935 17.4985 18.3371 17.024 19.1805 16.1805C20.024 15.337 20.4985 14.1935 20.5 13.0006Z" fill="white" stroke="black"/>
</svg>
