<svg width="26" height="26" viewBox="0 0 26 26" fill="none" xmlns="http://www.w3.org/2000/svg">
<path d="M24.7145 18.0496L24.7145 18.0496L24.7164 18.055C24.8119 18.3237 24.884 18.6002 24.9316 18.8813C24.9775 19.1684 25.0004 19.4587 25 19.7494V19.75C25 20.4394 24.8642 21.1221 24.6004 21.7591C24.3365 22.396 23.9498 22.9748 23.4623 23.4623C22.9748 23.9498 22.396 24.3365 21.7591 24.6004C21.1223 24.8641 20.4399 24.9999 19.7506 25C14.7796 24.9936 10.0141 23.016 6.49905 19.5009C2.9841 15.986 1.00653 11.2206 1 6.24968C1.00008 4.85741 1.5532 3.52218 2.53769 2.53769C3.52045 1.55493 4.85273 1.00203 6.24236 1.00001C6.53106 1.00929 6.81816 1.04683 7.09956 1.11208L7.11928 1.11665L7.13931 1.11961C7.41358 1.1602 7.68321 1.22761 7.94432 1.32087L7.94431 1.32091L7.95044 1.32301C8.07084 1.36426 8.17876 1.43547 8.26405 1.52994C8.34932 1.62439 8.40915 1.73899 8.43792 1.86294C8.43793 1.86296 8.43793 1.86298 8.43794 1.86301L10.1499 9.27306C10.1499 9.27335 10.15 9.27364 10.1501 9.27393C10.1776 9.39581 10.1742 9.52263 10.1402 9.64287C10.1061 9.7634 10.0424 9.87348 9.95488 9.96306L9.94444 9.97375L9.93466 9.98503C9.8964 10.0292 9.89057 10.0341 9.88041 10.0422C9.86391 10.0553 9.82583 10.0822 9.72254 10.1396C9.53526 10.2438 9.20858 10.4084 8.5723 10.7289C8.49459 10.768 8.41225 10.8095 8.32499 10.8535L7.8956 11.0699L8.09504 11.5074C9.37598 14.3175 11.6234 16.5742 14.4283 17.8666L14.8598 18.0654L15.0803 17.6446C15.4896 16.8639 15.6892 16.4863 15.8086 16.2814C15.8672 16.1808 15.8964 16.1397 15.9126 16.1194C15.9253 16.1034 15.9338 16.0947 15.9777 16.0539L15.9778 16.054L15.9869 16.0451C16.0765 15.9576 16.1866 15.8939 16.3071 15.8598L16.1711 15.3787L16.3071 15.8598C16.4275 15.8258 16.5545 15.8224 16.6766 15.85C16.6767 15.8501 16.6768 15.8501 16.6769 15.8501L24.1745 17.5621C24.1748 17.5621 24.1751 17.5622 24.1754 17.5623C24.299 17.5911 24.4133 17.6509 24.5076 17.736C24.602 17.8212 24.6732 17.9292 24.7145 18.0496ZM20.7907 5.20926C19.056 3.47455 16.7033 2.5 14.25 2.5C14.0511 2.5 13.8603 2.42098 13.7197 2.28033C13.579 2.13968 13.5 1.94891 13.5 1.75C13.5 1.55109 13.579 1.36032 13.7197 1.21967C13.8603 1.07902 14.0511 1 14.25 1C17.1011 1 19.8354 2.13259 21.8514 4.1486C23.8674 6.16462 25 8.89892 25 11.75C25 11.9489 24.921 12.1397 24.7803 12.2803C24.6397 12.421 24.4489 12.5 24.25 12.5C24.0511 12.5 23.8603 12.421 23.7197 12.2803C23.579 12.1397 23.5 11.9489 23.5 11.75C23.5 9.29675 22.5254 6.94397 20.7907 5.20926Z" fill="white" stroke="black"/>
</svg>
