<svg width="21" height="20" viewBox="0 0 21 20" fill="none" xmlns="http://www.w3.org/2000/svg">
<path d="M10.5 0C4.66667 0 0 4.44444 0 10C0 15.5556 4.66667 20 10.5 20C16.3333 20 21 15.5556 21 10C21 4.44444 16.3333 0 10.5 0ZM10.5 7.77778C11.7833 7.77778 12.8333 8.77778 12.8333 10C12.8333 11.2222 11.7833 12.2222 10.5 12.2222C9.21667 12.2222 8.16667 11.2222 8.16667 10C8.16667 8.77778 9.21667 7.77778 10.5 7.77778ZM13.7667 5.55556C13.7667 4.77778 14.4667 4.22222 15.1667 4.22222C15.8667 4.22222 16.5667 4.88889 16.5667 5.55556C16.5667 6.22222 15.9833 6.88889 15.1667 6.88889C14.35 6.88889 13.7667 6.33333 13.7667 5.55556ZM10.5 17.7778C5.95 17.7778 2.33333 14.3333 2.33333 10H5.83333C5.83333 12.4444 7.93333 14.4444 10.5 14.4444C13.0667 14.4444 15.1667 12.4444 15.1667 10H18.6667C18.6667 14.3333 15.05 17.7778 10.5 17.7778Z" fill="white"/>
</svg>
