<svg width="23" height="20" viewBox="0 0 23 20" fill="none" xmlns="http://www.w3.org/2000/svg">
<path d="M16.5643 11.1301V14.8271H14.2304V11.3771C14.2304 10.5111 13.8928 9.92009 13.0477 9.92009C12.403 9.92009 12.0186 10.3181 11.8498 10.7041C11.7888 10.8421 11.7725 11.0341 11.7725 11.2261V14.8271H9.43756C9.43756 14.8271 9.46915 8.98509 9.43756 8.38009H11.7725V9.29309L11.7572 9.31409H11.7725V9.29409C12.0829 8.85409 12.6361 8.22809 13.8765 8.22809C15.4121 8.22809 16.5643 9.15009 16.5643 11.1301ZM6.99484 5.27109C6.19657 5.27109 5.67383 5.75309 5.67383 6.38509C5.67383 7.00509 6.18132 7.50009 6.96434 7.50009H6.97959C7.7942 7.50009 8.3006 7.00409 8.3006 6.38509C8.28536 5.75309 7.7942 5.27109 6.99484 5.27109ZM5.81214 14.8271H8.14705V8.38009H5.81214V14.8271Z" fill="white"/>
<path d="M11.119 18C13.4296 18 15.6456 17.1571 17.2795 15.6569C18.9134 14.1566 19.8313 12.1217 19.8313 10C19.8313 7.87827 18.9134 5.84344 17.2795 4.34315C15.6456 2.84286 13.4296 2 11.119 2C8.8083 2 6.59227 2.84286 4.95839 4.34315C3.32451 5.84344 2.4066 7.87827 2.4066 10C2.4066 12.1217 3.32451 14.1566 4.95839 15.6569C6.59227 17.1571 8.8083 18 11.119 18ZM11.119 20C5.10417 20 0.228516 15.523 0.228516 10C0.228516 4.477 5.10417 0 11.119 0C17.1337 0 22.0094 4.477 22.0094 10C22.0094 15.523 17.1337 20 11.119 20Z" fill="white"/>
</svg>
