<svg width="147" height="46" viewBox="0 0 147 46" fill="none" xmlns="http://www.w3.org/2000/svg">
<path d="M52.2402 21.6016L55.2188 15.7227H58.4805L53.7441 24.4434V30H50.7363V24.541L46 15.7227H49.2812L52.2402 21.6016ZM61.9277 24.5215C61.9277 25.6022 62.1035 26.4193 62.4551 26.9727C62.8132 27.526 63.3926 27.8027 64.1934 27.8027C64.9876 27.8027 65.5573 27.5293 65.9023 26.9824C66.2539 26.429 66.4297 25.6087 66.4297 24.5215C66.4297 23.4408 66.2539 22.6302 65.9023 22.0898C65.5508 21.5495 64.9746 21.2793 64.1738 21.2793C63.3796 21.2793 62.8066 21.5495 62.4551 22.0898C62.1035 22.6237 61.9277 23.4342 61.9277 24.5215ZM69.4766 24.5215C69.4766 26.2988 69.0078 27.6888 68.0703 28.6914C67.1328 29.694 65.8275 30.1953 64.1543 30.1953C63.1061 30.1953 62.1816 29.9674 61.3809 29.5117C60.5801 29.0495 59.9648 28.3887 59.5352 27.5293C59.1055 26.6699 58.8906 25.6673 58.8906 24.5215C58.8906 22.7376 59.3561 21.3509 60.2871 20.3613C61.2181 19.3717 62.5267 18.877 64.2129 18.877C65.2611 18.877 66.1855 19.1048 66.9863 19.5605C67.7871 20.0163 68.4023 20.6706 68.832 21.5234C69.2617 22.3763 69.4766 23.3757 69.4766 24.5215ZM79.6719 30L79.2715 28.6035H79.1152C78.7962 29.1113 78.3438 29.5052 77.7578 29.7852C77.1719 30.0586 76.5046 30.1953 75.7559 30.1953C74.4733 30.1953 73.5065 29.8535 72.8555 29.1699C72.2044 28.4798 71.8789 27.4902 71.8789 26.2012V19.082H74.8574V25.459C74.8574 26.2467 74.9974 26.8392 75.2773 27.2363C75.5573 27.627 76.0033 27.8223 76.6152 27.8223C77.4486 27.8223 78.0508 27.5456 78.4219 26.9922C78.793 26.4323 78.9785 25.5078 78.9785 24.2188V19.082H81.957V30H79.6719ZM91.1758 18.877C91.5794 18.877 91.9147 18.9062 92.1816 18.9648L91.957 21.7578C91.7161 21.6927 91.4232 21.6602 91.0781 21.6602C90.1276 21.6602 89.3854 21.9043 88.8516 22.3926C88.3242 22.8809 88.0605 23.5645 88.0605 24.4434V30H85.082V19.082H87.3379L87.7773 20.918H87.9238C88.2624 20.306 88.7181 19.8145 89.291 19.4434C89.8704 19.0658 90.4987 18.877 91.1758 18.877ZM99.5938 30V15.7227H102.621V27.5H108.412V30H99.5938ZM113.041 24.5215C113.041 25.6022 113.217 26.4193 113.568 26.9727C113.926 27.526 114.506 27.8027 115.307 27.8027C116.101 27.8027 116.671 27.5293 117.016 26.9824C117.367 26.429 117.543 25.6087 117.543 24.5215C117.543 23.4408 117.367 22.6302 117.016 22.0898C116.664 21.5495 116.088 21.2793 115.287 21.2793C114.493 21.2793 113.92 21.5495 113.568 22.0898C113.217 22.6237 113.041 23.4342 113.041 24.5215ZM120.59 24.5215C120.59 26.2988 120.121 27.6888 119.184 28.6914C118.246 29.694 116.941 30.1953 115.268 30.1953C114.219 30.1953 113.295 29.9674 112.494 29.5117C111.693 29.0495 111.078 28.3887 110.648 27.5293C110.219 26.6699 110.004 25.6673 110.004 24.5215C110.004 22.7376 110.469 21.3509 111.4 20.3613C112.331 19.3717 113.64 18.877 115.326 18.877C116.374 18.877 117.299 19.1048 118.1 19.5605C118.9 20.0163 119.516 20.6706 119.945 21.5234C120.375 22.3763 120.59 23.3757 120.59 24.5215ZM127.572 27.8613C128.373 27.8613 128.946 27.6335 129.291 27.1777C129.636 26.7155 129.809 25.9701 129.809 24.9414V24.5801C129.809 23.4147 129.626 22.5781 129.262 22.0703C128.904 21.556 128.324 21.2988 127.523 21.2988C126.124 21.2988 125.424 22.3991 125.424 24.5996C125.424 25.6934 125.596 26.5104 125.941 27.0508C126.293 27.5911 126.837 27.8613 127.572 27.8613ZM132.592 30.0195C132.592 31.5885 132.133 32.7767 131.215 33.584C130.303 34.3978 128.943 34.8047 127.133 34.8047C125.538 34.8047 124.177 34.5898 123.051 34.1602V31.7773C124.372 32.3372 125.792 32.6172 127.309 32.6172C128.839 32.6172 129.604 31.7904 129.604 30.1367V29.9219L129.691 28.584H129.604C128.907 29.6582 127.875 30.1953 126.508 30.1953C125.199 30.1953 124.184 29.6908 123.461 28.6816C122.745 27.6725 122.387 26.2988 122.387 24.5605C122.387 22.7702 122.758 21.377 123.5 20.3809C124.249 19.3783 125.277 18.877 126.586 18.877C127.927 18.877 128.982 19.4108 129.75 20.4785H129.828L130.072 19.082H132.592V30.0195ZM138.08 24.5215C138.08 25.6022 138.256 26.4193 138.607 26.9727C138.965 27.526 139.545 27.8027 140.346 27.8027C141.14 27.8027 141.71 27.5293 142.055 26.9824C142.406 26.429 142.582 25.6087 142.582 24.5215C142.582 23.4408 142.406 22.6302 142.055 22.0898C141.703 21.5495 141.127 21.2793 140.326 21.2793C139.532 21.2793 138.959 21.5495 138.607 22.0898C138.256 22.6237 138.08 23.4342 138.08 24.5215ZM145.629 24.5215C145.629 26.2988 145.16 27.6888 144.223 28.6914C143.285 29.694 141.98 30.1953 140.307 30.1953C139.258 30.1953 138.334 29.9674 137.533 29.5117C136.732 29.0495 136.117 28.3887 135.688 27.5293C135.258 26.6699 135.043 25.6673 135.043 24.5215C135.043 22.7376 135.508 21.3509 136.439 20.3613C137.37 19.3717 138.679 18.877 140.365 18.877C141.413 18.877 142.338 19.1048 143.139 19.5605C143.939 20.0163 144.555 20.6706 144.984 21.5234C145.414 22.3763 145.629 23.3757 145.629 24.5215Z" fill="#FFB703"/>
<rect x="17.9999" y="2.12132" width="22.3552" height="22.3552" transform="rotate(45 17.9999 2.12132)" stroke="#FFB703" stroke-width="3"/>
<rect x="17.9999" y="12.2634" width="22.3552" height="22.3552" transform="rotate(45 17.9999 12.2634)" stroke="#FFB703" stroke-width="3"/>
</svg>
