<svg width="18" height="18" viewBox="0 0 18 18" fill="none" xmlns="http://www.w3.org/2000/svg">
<path d="M9.9 1.8C11.5709 1.8 13.1733 2.46375 14.3548 3.64523C15.5362 4.82671 16.2 6.42914 16.2 8.1C16.2 8.33869 16.2948 8.56761 16.4636 8.7364C16.6324 8.90518 16.8613 9 17.1 9C17.3387 9 17.5676 8.90518 17.7364 8.7364C17.9052 8.56761 18 8.33869 18 8.1C18 5.95175 17.1466 3.89148 15.6276 2.37243C14.1085 0.85339 12.0483 0 9.9 0C9.6613 0 9.43239 0.0948211 9.2636 0.263604C9.09482 0.432387 9 0.661305 9 0.9C9 1.13869 9.09482 1.36761 9.2636 1.5364C9.43239 1.70518 9.6613 1.8 9.9 1.8ZM17.775 12.519C17.7255 12.3745 17.64 12.245 17.5267 12.1427C17.4133 12.0403 17.2758 11.9685 17.127 11.934L11.727 10.701C11.5804 10.6678 11.4279 10.6718 11.2832 10.7126C11.1386 10.7535 11.0065 10.83 10.899 10.935C10.773 11.052 10.764 11.061 10.179 12.177C8.23788 11.2825 6.68249 9.72077 5.796 7.776C6.939 7.2 6.948 7.2 7.065 7.065C7.17004 6.9575 7.24648 6.82541 7.28736 6.68077C7.32823 6.53614 7.33223 6.38358 7.299 6.237L6.066 0.9C6.03148 0.751226 5.95967 0.613684 5.85733 0.50032C5.75499 0.386957 5.62548 0.301502 5.481 0.252C5.27082 0.17693 5.05378 0.12267 4.833 0.0899999C4.60553 0.0372557 4.3734 0.00710941 4.14 0C3.042 0 1.98898 0.436177 1.21258 1.21258C0.436177 1.98898 0 3.042 0 4.14C0.00476273 7.81444 1.46654 11.337 4.06476 13.9352C6.66298 16.5335 10.1856 17.9952 13.86 18C14.4037 18 14.942 17.8929 15.4443 17.6849C15.9466 17.4768 16.403 17.1719 16.7874 16.7874C17.1719 16.403 17.4768 15.9466 17.6849 15.4443C17.8929 14.942 18 14.4037 18 13.86C18.0003 13.6309 17.9822 13.4022 17.946 13.176C17.9082 12.9525 17.851 12.7326 17.775 12.519Z" fill="white"/>
</svg>
