<svg width="22" height="20" viewBox="0 0 22 20" fill="none" xmlns="http://www.w3.org/2000/svg">
<path d="M11 0C4.92545 0 0 4.47768 0 10C0 15.5223 4.92545 20 11 20C17.0746 20 22 15.5223 22 10C22 4.47768 17.0746 0 11 0ZM16.2864 7.53795C16.2937 7.64286 16.2937 7.75223 16.2937 7.85938C16.2937 11.1362 13.5487 14.9107 8.53237 14.9107C6.98549 14.9107 5.55156 14.5022 4.34353 13.7991C4.56451 13.8214 4.77567 13.8304 5.00156 13.8304C6.27835 13.8304 7.45201 13.4375 8.3875 12.7723C7.18929 12.75 6.18259 12.0357 5.83884 11.0536C6.25871 11.1094 6.63683 11.1094 7.06897 11.0089C6.45201 10.895 5.89746 10.5904 5.49955 10.1468C5.10164 9.70331 4.8849 9.14823 4.88616 8.57589V8.54464C5.2471 8.72991 5.67188 8.84375 6.11629 8.85938C5.74269 8.63302 5.4363 8.32636 5.22429 7.96658C5.01228 7.60681 4.9012 7.20503 4.90089 6.79688C4.90089 6.33482 5.03348 5.91295 5.27165 5.54688C5.95646 6.31325 6.81099 6.94005 7.77971 7.38653C8.74843 7.83301 9.80966 8.08918 10.8944 8.13839C10.5089 6.45313 11.8938 5.08929 13.5585 5.08929C14.3442 5.08929 15.0513 5.38839 15.5498 5.87054C16.1661 5.76562 16.7554 5.5558 17.2808 5.27455C17.077 5.84821 16.6498 6.33259 16.0826 6.63839C16.6326 6.58482 17.1629 6.44643 17.654 6.25223C17.2833 6.74777 16.8192 7.1875 16.2864 7.53795Z" fill="white"/>
</svg>
