<svg width="45" height="45" viewBox="0 0 45 45" fill="none" xmlns="http://www.w3.org/2000/svg">
<path d="M32.285 25.665V32.9444H28.0654V26.1514C28.0654 24.4462 27.455 23.2825 25.9271 23.2825C24.7614 23.2825 24.0664 24.0662 23.7612 24.8262C23.6509 25.098 23.6214 25.476 23.6214 25.8541V32.9444H19.3998C19.3998 32.9444 19.4569 21.4415 19.3998 20.2503H23.6214V22.048L23.5938 22.0893H23.6214V22.0499C24.1825 21.1836 25.1828 19.951 27.4255 19.951C30.2018 19.951 32.285 21.7664 32.285 25.665ZM14.9834 14.1287C13.5401 14.1287 12.595 15.0777 12.595 16.3221C12.595 17.5429 13.5125 18.5176 14.9282 18.5176H14.9558C16.4286 18.5176 17.3442 17.5409 17.3442 16.3221C17.3166 15.0777 16.4286 14.1287 14.9834 14.1287ZM12.845 32.9444H17.0666V20.2503H12.845V32.9444Z" fill="#558E4C"/>
<path d="M22.44 39.192C26.6177 39.192 30.6243 37.5324 33.5783 34.5783C36.5324 31.6243 38.192 27.6177 38.192 23.44C38.192 19.2623 36.5324 15.2557 33.5783 12.3017C30.6243 9.34758 26.6177 7.688 22.44 7.688C18.2623 7.688 14.2557 9.34758 11.3017 12.3017C8.34758 15.2557 6.688 19.2623 6.688 23.44C6.688 27.6177 8.34758 31.6243 11.3017 34.5783C14.2557 37.5324 18.2623 39.192 22.44 39.192ZM22.44 43.13C11.5652 43.13 2.75 34.3148 2.75 23.44C2.75 12.5652 11.5652 3.75 22.44 3.75C33.3148 3.75 42.13 12.5652 42.13 23.44C42.13 34.3148 33.3148 43.13 22.44 43.13Z" fill="#558E4C"/>
</svg>
